<?xml version="1.0" encoding="utf-8"?>
<!-- Generator: Adobe Illustrator 23.0.1, SVG Export Plug-In . SVG Version: 6.00 Build 0)  -->
<svg version="1.1" id="Layer_1" xmlns="http://www.w3.org/2000/svg" xmlns:xlink="http://www.w3.org/1999/xlink" x="0px" y="0px"
	 viewBox="0 0 985 171" xml:space="preserve" preserveAspectRatio="xMinYMid meet">
<style type="text/css">
	.st0{fill:#B0B7BB;}
	.st1{fill:#B4121B;}
	.st2{fill:#FFFFFF;}
	.st3{fill:#231F20;}
	.st4{fill:#6A747C;}
	.st5{fill:#010101;}
	.st6{fill:#B4131C;}
</style>
<g>
	<g>
		<path class="st0" d="M983.9,66.1v11.5c0,21.3-10.4,68.3-61.7,93.4c-51.3-25.1-61.7-72.1-61.7-93.4V66.1H983.9z"/>
		<path class="st1" d="M922.1,14.7c0,0,40.3-0.6,61.7,7.9v43.5H860.3V22.6C881.9,14.2,922.1,14.7,922.1,14.7"/>
		<path class="st2" d="M873.8,27.4c-0.1,0-0.2,0-0.3,0.1c0.1-0.1,0.2-0.3,0.4-0.4c0.3-0.2,0.6-0.4,1.1-0.4c0.4,0,0.8,0.1,1.4,0.5
			c-0.1,0-0.2,0.1-0.2,0.2c-0.2,0.1-0.3,0.3-0.4,0.4c-0.2-0.2-0.6-0.4-1.3-0.4C874.2,27.4,874,27.4,873.8,27.4z M875.1,31.2
			c-0.3-0.1-0.6-0.1-0.9-0.1c-0.7,0-1.1,0.3-1.3,0.6c-0.2,0.2-0.3,0.5-0.3,0.7c0.1-0.1,0.2-0.1,0.3-0.2c0.5-0.3,0.9-0.4,1.2-0.4
			c0.2,0,0.4,0,0.6,0.1C874.8,31.6,875,31.3,875.1,31.2L875.1,31.2z M875.5,29.1c0,0.1-0.1,0.1-0.1,0.1l0,0l0,0l0,0v0.1
			c0,0.1,0,0.1,0,0.2c0,0.2,0.1,0.3,0.3,0.5c0.3,0.2,1,0.6,1.6,1c0.2-0.5,0.5-1,0.9-1.4l-0.9-1.6l0,0l0,0l0,0l-0.1-0.1
			c-0.1-0.1-0.2-0.1-0.3-0.1c-0.1,0-0.2,0-0.4,0.2C876,28.3,875.7,28.9,875.5,29.1z M878.6,57c-0.2,0.4-0.2,0.8-0.2,1.1
			c0,0,0,0,0,0.1c0-0.1,0.1-0.1,0.1-0.2c0.3-0.6,0.8-0.9,1.2-1.1c-0.1-0.3-0.1-0.5-0.2-0.8C879,56.3,878.7,56.7,878.6,57z
			 M880.2,37.5c0.8,0.6,1.2,0.9,1.5,0.9c0.2,0,0.3-0.1,0.4-0.2c0.1-0.1,0.2-0.3,0.3-0.4c0.1-0.2,0.1-0.4,0.1-0.6
			c0-0.4-0.1-0.8-0.2-1l0,0c-0.1-0.2-1.9-4.3-2.4-5.9c-0.1-0.2-0.1-0.5-0.1-0.6v-0.1h-0.1c-0.1,0-0.3,0.1-0.5,0.2
			c-1.1,0.7-1.5,1.6-1.5,2.7C877.7,34.4,879.2,36.7,880.2,37.5z M877,32.1c0-0.1,0-0.1,0-0.2s-0.6-0.3-0.7-0.4
			c-0.3-0.1-0.6,0-0.8,0.2c-0.2,0.2-0.6,0.8-0.6,1.3c0,0.2,0,0.3,0.2,0.5c0.1,0.1,0.3,0.3,0.6,0.4c0.5,0.2,1.1,0.3,1.5,0.5
			c-0.2-0.6-0.3-1.2-0.3-1.8C877,32.3,877,32.2,877,32.1z M879.8,25.4c0.1,0,0.1,0,0.2,0c0.3,0,0.5,0.1,0.7,0.2
			c-0.1-0.8-0.4-1.2-0.7-1.5c-0.4-0.3-0.8-0.4-1.1-0.4c-0.1,0-0.2,0-0.2,0c0.1,0.1,0.2,0.1,0.3,0.2
			C879.6,24.5,879.8,25.1,879.8,25.4z M878.3,27.7c0.1,0.3,0.1,0.5,0.2,0.8c0,0.1,0.3,0.8,0.3,0.8s0.1,0,0.1-0.1l0,0
			c0.3-0.1,0.5-0.2,0.8-0.2c0.1,0,0.2,0,0.4,0.1c0.1-0.2,0.2-0.5,0.3-0.8c0.1-0.3,0.2-0.7,0.2-0.8c0-0.1,0-0.3,0-0.4
			c0-0.2,0-0.4-0.1-0.6c-0.1-0.1-0.2-0.2-0.5-0.2c-0.1,0-0.2,0-0.4,0.1c-0.4,0.1-1,0.3-1.3,0.6C878.2,27.1,878.2,27.4,878.3,27.7
			L878.3,27.7z M885.6,28.5c0.4-0.5,0.6-1,0.6-1.4s-0.2-0.8-0.4-1.1c-0.1-0.2-0.3-0.3-0.4-0.4c0,0.1,0,0.2,0.1,0.3
			c0,0.2,0.1,0.4,0.1,0.5c0,0.7-0.3,1.1-0.4,1.3C885.2,27.9,885.4,28.2,885.6,28.5z M899.5,25.7L899.5,25.7c0-0.2,0.2-0.5,0.3-0.7
			c0.2-0.3,0.5-0.5,0.3-0.9c-0.1-0.2-0.3-0.3-0.3-0.5c0-0.1,0.1-0.2,0.2-0.3c0.1-0.1,0.3-0.2,0.5-0.2c0.5-0.2,2.2-0.8,2.2-0.8
			c0.2-0.2,0.2-0.3,0.4-0.5c0.2-0.2,0.5-0.4,1.2-0.5c1.7-0.4,6.5-0.7,7-0.7c0.1,0,0.3,0.1,0.5,0.2c0.3,0.2,0.6,0.6,0.9,0.9
			c0.1,0.1,0.2,0.3,0.3,0.4c0.1,0.1,0.1,0.2,0.1,0.2l0.1,0.1l0.1-0.1c0,0,0.1-0.1,0.2-0.1s0.2-0.1,0.4-0.1c0.2,0,0.4,0,0.6,0.2
			c0.2,0.1,0.4,0.4,0.5,0.8c0.1,0.2,0.1,0.4,0.1,0.6c0,1.2-0.8,2.3-1.3,2.9l-0.1,0.1l0.1,0.1c1.8,2.6,2.1,5,2.1,5.8
			c-0.2-0.3-0.6-0.8-0.6-0.8s-0.1-0.1-0.1-0.2c-0.1-0.1-0.2-0.2-0.3-0.2h-0.1c-0.1,0-0.2,0-0.2,0.1c-0.1,0.1-0.1,0.2-0.1,0.3
			c0,0.1,0,0.2,0.1,0.3c0.8,2.3,0.9,4.7,0.9,6v0.1c-0.3-0.5-0.8-1.2-0.8-1.2c-0.1-0.3-0.3-0.4-0.5-0.4c-0.1,0-0.2,0-0.2,0.1
			c-0.1,0.1-0.1,0.2-0.1,0.2c0,0.1,0,0.1,0,0.2c0.4,1.1,0.5,2.1,0.5,3c0,1.2-0.3,2.3-0.5,3.1c-0.1,0.4-0.3,0.7-0.4,0.9
			c0,0.1-0.1,0.1-0.1,0.2c-0.1-0.1-0.1-0.2-0.2-0.4c-0.2-0.3-0.4-0.7-0.5-1c-0.1-0.1-0.1-0.3-0.2-0.3c-0.1-0.1-0.2-0.1-0.3-0.1
			c-0.1,0-0.2,0.1-0.2,0.2c0,0.1-0.1,0.2-0.1,0.3v0.1c0,0.2,0,0.5,0,0.7c0,2.1-0.8,3.6-1.7,4.5c-0.4,0.5-0.8,0.8-1.1,1
			c-0.1,0.1-0.3,0.2-0.4,0.2c0-0.6,0-2.3,0-3c0-0.1,0-0.3-0.1-0.3c-0.1-0.1-0.1-0.2-0.3-0.2c-0.1,0-0.1,0-0.2,0.1s-0.1,0.1-0.1,0.2
			c-0.6,1.4-1.2,2.2-1.7,2.6c-0.5,0.4-1,0.6-1.3,0.6c-0.2,0-0.3,0-0.4-0.1c0.1-0.1,0.2-0.3,0.3-0.6c0.2-0.4,0.4-0.9,0.4-1.4
			c0-0.3-0.1-0.7-0.4-0.9s-0.7-0.4-1.3-0.4c-0.2,0-0.4,0-0.6,0c-1.4,0.2-3.4,1.1-5.1,1.9c-1.4,0.7-2.6,1.4-2.9,1.6
			c-0.3-0.7-0.5-1.3-0.5-1.9c0-0.8,0.3-1.5,0.5-2c0.1-0.2,0.3-0.4,0.4-0.5c0-0.1,0.1-0.1,0.1-0.1l0,0l0.1-0.1
			c0.1-0.1,0.1-0.2,0.1-0.3s0-0.2-0.1-0.2c-0.1-0.1-0.2-0.1-0.3-0.1c-0.7,0.1-1.3,0.3-1.7,0.6c-0.3,0.2-0.5,0.4-0.7,0.5
			c0.1-2.3,0.9-3.7,1.8-4.7s1.9-1.4,2.1-1.5s0.3-0.2,0.4-0.2c0.1-0.1,0.1-0.2,0.1-0.3s0-0.1,0-0.1c0-0.1-0.1-0.1-0.1-0.2
			c-0.1-0.1-0.3-0.1-0.4-0.1c0,0-0.5-0.1-1-0.2c-0.3-0.1-0.5-0.1-0.7-0.2c-0.1,0-0.1,0-0.2,0c1.5-1.9,3.7-2.2,4.8-2.2
			c0.3,0,0.5,0,0.6,0s0.1,0,0.2,0h0.1c0.1,0,0.2,0,0.2,0c0.2,0,0.3,0,0.4-0.1s0.2-0.2,0.2-0.3s-0.1-0.2-0.1-0.3
			c-0.1-0.1-0.1-0.1-0.1-0.1l0,0c-0.1,0-0.3-0.2-0.9-0.5c-0.2-0.1-0.3-0.2-0.4-0.3s-0.1-0.1-0.1-0.1l0,0c0.1,0,0.4,0,0.6,0
			c0.4,0,0.8,0.1,0.9,0.1c0.6,0.2,1,0.3,1.5,0.3c0.8,0,1.4-0.3,1.7-0.7c0.4-0.4,0.6-0.8,0.7-1s0.2-0.4,0.2-0.6
			c0-0.3-0.2-0.6-0.5-0.7c-0.2,0-0.5-0.1-0.8-0.1c-0.4,0-0.8,0.1-1.1,0.4c-0.2,0.2-0.4,0.3-0.5,0.3s-0.1,0-0.2,0l0,0l-0.7-0.7
			c-0.3-0.1-0.5-0.2-0.6-0.2c-0.1-0.1-0.1-0.1-0.1-0.1V31l0.1-0.1c0.4-0.2,0.6-0.3,0.9-0.3c0.4,0,0.8,0.1,1.7,0.1c0.1,0,0.3,0,0.5,0
			c0.6,0,1-0.2,1.3-0.5c0.2-0.3,0.3-0.6,0.3-0.9c0-0.4-0.1-0.7-0.1-0.7s-0.5-1.2-1.3-2.7c-0.2-0.4-0.6-0.6-0.9-0.6
			c-0.5,0-0.9,0.3-1.3,0.5c-0.3,0.3-0.6,0.5-0.6,0.5c-0.3,0.3-0.6,0.4-0.9,0.4s-0.6-0.1-0.8-0.4C899.7,26.2,899.5,25.9,899.5,25.7z
			 M904.1,23.2c0.2,0.1,0.5,0.2,0.6,0.4l0.1,0.1l0.1-0.1c0,0,0.3-0.2,0.5-0.5c0.1-0.1,0.6-0.4,0.6-0.6c0-0.3-1.4,0-1.6,0.1
			s-0.3,0.1-0.4,0.2c-0.1,0-0.1,0.1-0.1,0.1h-0.1C903.6,23.1,904,23.2,904.1,23.2z M880.7,30.1c0.3,1.2,1.5,3.8,2,5.1
			c0.2,0.4,0.3,0.7,0.3,0.7s0.3,0.6,0.3,1.3c0,0.3-0.1,0.7-0.3,1c-0.3,0.4-0.5,0.7-0.5,0.7l0,0l0,0l0,0l0,0l0,0c0,0,0,0.1-0.1,0.1
			c-0.1,0.1-0.1,0.3-0.1,0.5s0.1,0.5,0.2,0.8c0,0,0.2,0.4,0.5,0.8c0.3,0.4,0.5,0.9,0.7,1.1c0.1,0.1,0.1,0.2,0.2,0.2
			c0.1,0.1,0.1,0.1,0.1,0.1l0,0c0-0.1,0-0.2,0-0.4V42v-0.1c0-0.3,0-0.6,0-0.8s0.2-0.4,0.4-0.4c0.1,0,0.3,0.1,0.3,0.3
			c0.1,0.2,0.1,0.6,0.2,0.9l0,0c0,0,0,0,0,0.1s0.1,0.2,0.1,0.3c0.1,0.3,0.3,0.6,0.5,1c0.4,0.7,1.1,1.5,2.1,1.8c0-0.1,0-0.2,0-0.3
			c0-0.5,0-0.8,0-0.9v-0.1c0-0.1,0-0.1,0-0.2c0-0.1,0.1-0.1,0.2-0.1l0,0l0,0l0,0c0.1,0,0.1,0,0.2,0.1c0.1,0,0.1,0.1,0.1,0.1l0.1,0.1
			l0,0l0,0c0,0,0,0.1,0.1,0.2c0.1,0.1,0.2,0.3,0.4,0.5c0.3,0.5,0.8,1.1,1.3,1.7c1,1.1,2.3,2.2,3.4,2.5c-0.1-0.3-0.1-0.6-0.1-1
			c0-0.6,0.1-1.3,0.4-1.9c-0.1,0.1-0.2,0.2-0.3,0.3l-1.6,1.4l0.1-2.1c0.1-2.1,0.8-3.9,2.1-5.3c0.4-0.4,0.8-0.8,1.3-1.1
			c-0.2,0-0.3-0.1-0.5-0.1c-0.1,0-0.2,0-0.2-0.1l-0.5-0.1c-2.8-0.4-6.9-1.6-10.8-5.3c-0.5-0.4-0.9-1.2-0.9-2c0-0.4,0.1-0.9,0.5-1.3
			c0.3-0.4,0.8-0.8,1.6-1l0,0l0,0l0,0l0,0l0.1-0.1c0.1-0.1,0.1-0.1,0.1-0.2s-0.1-0.4-0.6-0.8c-0.6-0.5-1.1-0.8-1.4-1.1
			c-0.3-0.2-0.4-0.3-0.4-0.3l0,0l0,0l0,0c0,0-0.2,0-0.4,0.2c-0.3,0.3-1.5,1.3-1.5,2.6C880.6,29.7,880.6,29.9,880.7,30.1z M885,51.5
			L885,51.5L885,51.5c0-0.2,0-0.4-0.3-0.6c-0.2-0.2-0.5-0.4-0.6-0.5c-0.2-0.1-0.3-0.2-0.3-0.2l0,0h-0.1c-0.1,0-0.2,0-0.3,0.1
			c0,0-0.1,0-0.2,0.1c-0.1,0-0.2,0.1-0.3,0.2c-0.2,0.1-0.5,0.3-0.8,0.5c0.1,0.1,0.1,0.1,0.2,0.2c0.4,0.4,0.9,1,1.7,1.3
			c0.3,0.1,0.6,0.3,1,0.3c0-0.1,0-0.3,0-0.4C884.8,51.9,885,51.5,885,51.5L885,51.5z M880,51.3c-0.6,0-1,0.2-1.3,0.5
			c-0.2,0.1-0.3,0.3-0.4,0.4c0.1,0,0.1-0.1,0.2-0.1c0.3-0.1,0.6-0.2,0.9-0.2s0.5,0,0.7,0.1c0.1-0.2,0.3-0.5,0.5-0.7
			C880.4,51.3,880.2,51.3,880,51.3z M883.9,48.2c-0.4-0.2-0.7-0.3-1-0.3c0.1,0,0.1,0.1,0.2,0.1c0.7,0.5,0.9,1.2,0.9,1.5h0.1h0.1l0,0
			l0,0l0,0c0,0,0.4,0.3,0.7,0.6C884.9,49.1,884.4,48.5,883.9,48.2z M959.2,53.5L959.2,53.5c0.2-0.1,0.3-0.2,0.5-0.4
			c0.1-0.1,0.1-0.1,0.2-0.2c-0.4-0.2-0.7-0.2-1-0.2c-0.5,0-1,0.2-1.3,0.5c-0.2,0.1-0.3,0.3-0.4,0.4c0.1,0,0.1,0,0.2-0.1
			c0.3-0.1,0.6-0.2,0.9-0.2C958.7,53.3,959,53.4,959.2,53.5L959.2,53.5z M959.1,55.1c0,0.4,0.3,0.9,0.5,1.2c0.2,0.2,0.5,0.3,0.8,0.3
			c0.3,0.1,0.6,0.1,0.9,0.1s0.9-0.1,0.6-0.5c-0.1-0.2-0.3-0.3-0.4-0.5s-0.2-0.5-0.3-0.7c-0.1-0.3-0.2-0.7-0.3-1.1
			c0-0.1-0.1-0.3-0.1-0.4c-0.1-0.1-0.2-0.2-0.3-0.2c-0.1,0-0.2,0-0.4,0.2c-0.6,0.6-0.7,0.7-0.9,1C959.1,54.7,959.1,54.9,959.1,55.1z
			 M956.4,58.5c-0.2,0.4-0.3,0.9-0.3,1.2l0,0c0-0.1,0.1-0.1,0.1-0.2c0.5-0.8,1.1-1.1,1.4-1.1c0-0.1,0-0.2,0-0.4s0-0.3,0.1-0.5l0,0
			C957,57.7,956.6,58.1,956.4,58.5z M924.3,52.3c0.2,0,0.3,0,0.4,0s0.2,0,0.3,0l0,0l0,0c0.1,0,0.1,0,0.2,0c-0.2-0.7-0.6-1.1-1-1.3
			c-0.4-0.3-0.9-0.3-1.2-0.3c-0.1,0-0.2,0-0.3,0c0.1,0,0.1,0.1,0.2,0.1c0.9,0.4,1.2,1,1.3,1.3l0,0L924.3,52.3z M961.6,60.1
			c-0.1-0.1-0.1-0.1-0.2-0.2c-0.3,0.5-0.4,0.9-0.4,1.3c0,0.7,0.4,1.3,0.7,1.6c0-0.1,0-0.1-0.1-0.2c-0.1-0.2-0.1-0.5-0.1-0.7
			c0-0.6,0.2-1,0.3-1.2l0,0l0.1-0.2c0,0,0,0-0.1-0.1C961.8,60.4,961.7,60.2,961.6,60.1z M966.7,60.3L966.7,60.3v-0.2h-0.6l0,0l0,0
			c-0.1,0-0.2,0-0.3,0c0.2,0.7,0.6,1.1,1,1.4c0.4,0.3,0.9,0.3,1.2,0.3h0.1c-0.1,0-0.1-0.1-0.2-0.1C967,61.3,966.8,60.6,966.7,60.3z
			 M883,58.9c-0.5,0.5-0.7,1.1-0.7,1.5c0,0.3,0,0.5,0.1,0.7c0-0.1,0-0.1,0.1-0.2c0.2-0.7,0.6-1.1,0.9-1.3c-0.1-0.1-0.2-0.3-0.3-0.4
			C883.1,59,883.1,59,883,58.9z M918,53c-0.6,0-1.1,0.3-1.4,0.5c0.1,0,0.1,0,0.2,0s0.2,0,0.3,0c0.3,0,0.6,0.1,0.8,0.1
			c0.2-0.2,0.4-0.4,0.5-0.5C918.3,53,918.1,53,918,53z M918.8,55.8L918.8,55.8c0,0.2,0,0.2,0.1,0.3c0.1,0.1,0.3,0.1,0.6,0.1
			c0.2,0,0.3,0,0.5,0s0.4,0,0.5-0.1c0-0.1,0.1-0.2,0.1-0.3c0.1-0.2,0.2-0.5,0.2-0.7s0-0.4,0.1-0.6c0-0.1,0-0.3,0-0.4
			c-0.2-0.2-0.6-0.6-0.8-0.7c-0.1-0.1-0.3-0.2-0.4-0.2s-0.3,0-0.5,0.2c-0.2,0.1-0.4,0.3-0.5,0.4c-0.1,0.1-0.2,0.3-0.2,0.4
			c0,0.1,0,0.2,0.1,0.3c0.2,0.4,0.3,0.6,0.3,0.9C918.8,55.6,918.8,55.7,918.8,55.8z M968.1,56.9c-0.1-0.2-0.2-0.4-0.2-0.6
			c0-0.5,0.3-0.8,0.6-1.2l0.1-0.1c0.2-0.4,0.3-0.8,0.3-1.3c0-0.6-0.2-1.4-1-2.2c0,0-0.2-0.2-0.2-0.6c0-0.3,0.1-0.8,0.3-1.5
			c0.2-0.6,0.5-1.1,0.5-1.7c0-0.3-0.1-0.5-0.2-0.8c-0.1,0.5-0.2,1.5-0.9,1.5c-0.5,0-0.5-0.6-0.4-0.9c0-0.1,0-0.2,0-0.3
			c0-0.3,0.1-0.6,0.1-1c0-0.6-0.1-1.3-0.3-1.9c-0.1,0.4-0.2,0.7-0.4,0.9c-0.1,0.1-0.2,0.1-0.3,0.1c-0.1,0-0.2-0.1-0.3-0.2
			c-0.1-0.1-0.1-0.2-0.2-0.3c-0.1-0.2-0.1-0.4-0.1-0.4s-0.1-0.5-0.2-1.1c-0.1-0.5-0.3-1.2-0.4-1.5c0,0.2-0.1,0.4-0.1,0.7
			c-0.1,0.3-0.1,0.7-0.5,0.8c-0.3,0-0.3-0.2-0.4-0.4c-0.1-0.3-0.1-0.5-0.2-0.8c-0.1-0.4-0.3-0.9-0.4-1.3c-0.1-0.2-0.2-0.4-0.3-0.4
			c0,0,0,0.1-0.1,0.2c-0.1,0.2-0.2,0.4-0.3,0.6c-0.3,0.5-0.7,1.1-1.3,1.5c-1.1,0.8-2,0.9-2.7,0.9c-1.1,0-3-0.4-4.5-1.4
			c-0.9-0.6-2.5-1.5-3.5-2.3l-0.3-0.2h0.3c0.3,0,0.7,0,1.1,0c1.6,0,3.2-0.2,4.4-0.7c1.4-0.7,2.1-1.5,2.7-2.4s1.2-1.7,2.4-2.4
			c0.7-0.4,1.5-0.5,2.2-0.5c0.8,0,1.5,0.2,1.9,0.3c-0.3-1.1-1.6-2-3.1-2c-1.1,0-2.4,0.5-3.5,1.7l-0.2,0.2v-0.3l0,0v-0.1
			c0-0.1,0-0.3-0.1-0.5c-0.1-0.4-0.3-0.9-0.7-1.5c-0.8-1.1-2.3-2.2-5.4-2.2c-0.2,0-0.5,0-0.8,0c-2.5,0.1-7.2,1.6-11.5,2.5
			c-4.2,0.8-10.5,1.2-13.1,1.2c-1,0-2-0.1-2.9-0.3s-1.6-0.5-2-1c-0.3-0.3-0.5-0.7-0.5-1.2c0-1,0.5-1.5,1.2-1.8s1.5-0.4,2.1-0.4
			c2.1,0,4.9,1.3,7.2,2.1c1.6,0.6,3.2,0.6,4.1,0.6c2.3,0,5.3-1.3,6.8-1.9c1.2-0.5,2.2-0.8,4-0.8c0.4,0,0.9,0,1.4,0.1
			c-0.6-0.7-2-1.4-3.8-1.4c-1.2,0-2.5,0.3-3.9,1.1l-0.1,0.1l-0.1-0.1c-0.1-0.1-0.1-0.3-0.1-0.4c0-0.4,0.2-0.8,0.5-1.2
			c0.3-0.3,0.7-0.6,1.3-0.9c-0.3-0.2-0.9-0.4-1.7-0.6c-0.9-0.2-2-0.3-3.2-0.3c-0.1,0-0.3,0-0.4,0c-2,0.1-3.3,0.6-4.6,1
			c-1.3,0.5-2.6,1-4.4,1c-0.2,0-0.3,0-0.5,0c-0.4,0-0.7,0-1.1,0c-1.8,0-3.4,0.2-4.6,0.8c-1.2,0.6-1.9,1.5-1.9,2.9c0,1.2,0.7,2.2,2,3
			c1.3,0.7,3.2,1.2,5.6,1.2h0.1c5.9,0,13-1.4,17.3-2.2c1.4-0.2,4.5-1.1,7-1.1c1.2,0,2.3,0.2,3.1,0.7c0.8,0.5,1.3,1.3,1.3,2.6
			c0,0.6-0.1,1.4-0.7,2c-0.5,0.6-1.5,1.1-3,1.1c-1.7,0-3.7-0.5-6.1-0.9h-0.2c-0.5-0.1-1-0.1-1.6-0.2c-3.5-0.4-8-0.7-10.5-0.7
			c-0.2,0-0.5,0-0.7,0c-1.9,0.1-5.7,0.3-9.2,0.8c-3.6,0.6-7.1,1.4-8.1,1.6v0.1v3.3l-0.9-1.5c0,0.1,0,0.1,0,0.2
			c0,1.4-0.3,2.6-0.6,3.4c-0.2,0.4-0.3,0.8-0.4,1c0,0.1-0.1,0.1-0.1,0.2l-0.8,1.5l-0.7-1.2c-0.2,1.4-0.8,2.7-1.8,3.8
			c-0.2,0.2-0.7,0.7-1.2,1.1l-0.1,0.1c-0.2,0.1-0.3,0.2-0.4,0.3l-1.4,0.9V49c-0.3,0.4-0.6,0.7-0.9,1c-0.6,0.5-1.2,0.8-1.9,0.8
			c-0.2,0-0.4,0-0.6-0.1l-1.2-0.4l0.6-1c0.1-0.1,0.2-0.3,0.3-0.5c0.2-0.5,0.3-0.8,0.3-1c0,0,0-0.1,0-0.2c-0.1-0.1-0.3-0.1-0.7-0.1
			c-0.2,0-0.3,0-0.5,0c-0.7,0.1-2.2,0.5-4.8,1.8c-1.4,0.7-2.7,1.5-4,2.3c-0.8,0.5-1.7,1-2.6,1.5c-1.3,0.7-2.6,1.2-4,1.5
			c-0.4,0.1-0.8,0.1-1.2,0.1c-0.6,0-1.1-0.2-1.5-0.6c-0.6,0-1.2-0.2-1.7-0.4c-0.6-0.3-1-0.6-1.4-1c-0.3-0.3-0.5-0.5-0.7-0.8
			c-0.7,0.6-1.3,1.4-1.4,2.4c0,0.2,0,0.5,0,0.7c0,0.1,0,0.3,0,0.4c0.1,0,0.2,0,0.4,0c2.7,0,4.2-0.4,4.3-0.4h0.1
			c0.2,0,0.3,0.1,0.3,0.3v0.1c0,0.2-0.1,0.3-0.3,0.4c0,0-1.6,0.5-4.5,0.5c-0.1,0-0.2,0-0.3,0c0.1,0.8,0.3,1.5,0.6,2
			c0.4,0.6,1,0.8,1.3,0.8h0.1c2.2-1.5,3.7-2,3.7-2.1h0.1c0.2,0,0.3,0.1,0.3,0.2v0.1c0,0.2-0.1,0.3-0.3,0.4h-0.1
			c-0.1,0-0.2,0.1-0.3,0.1c-0.2,0.1-0.6,0.3-1,0.5c-0.3,0.2-0.6,0.3-1,0.6c0,0,0,0,0,0.1s0,0.1,0.1,0.3c0.3,0.5,0.7,1.1,0.9,1.4
			c0.2,0.3,0.5,0.5,0.9,0.5s0.9-0.2,1.4-1c0.3-0.4,0.8-0.8,1.6-0.8l2-0.1l0,0h0.1c0.1,0,0.2,0,0.3-0.1c0.3-0.1,0.6-0.3,0.8-0.6
			c0.1-0.2,0.3-0.3,0.4-0.4c0.2-0.1,0.3-0.1,0.5-0.1c0.3,0,0.7,0.1,1.3,0.3c0.9,0.2,1.5,0.3,2,0.3c0.1,0,0.3,0,0.3,0
			c-0.1-0.1-0.1-0.1-0.2-0.2c-0.2-0.2-0.4-0.4-0.6-0.6c-0.1-0.1-0.2-0.3-0.2-0.4c0-0.1,0-0.2,0.1-0.2c0.1-0.1,0.3-0.2,0.4-0.2
			s0.2,0.1,0.3,0.1c0.1,0.1,0.2,0.1,0.2,0.2c0.8,0.6,2.4,1,3.7,1c0.4,0,0.7,0,1-0.1c-0.2-0.1-0.5-0.3-0.7-0.6
			c-0.1-0.1-0.2-0.2-0.2-0.4c0-0.1,0-0.2,0.1-0.2c0.1-0.1,0.2-0.1,0.4-0.1c0.4,0,0.9,0.1,0.9,0.1s0.1,0,0.2,0s0.3,0.1,0.6,0.1
			c0.5,0.1,1.1,0.2,1.7,0.2c0.7,0,1.3-0.1,1.6-0.4c-0.6-0.6-1.1-1-1.1-1s-0.2-0.1-0.2-0.3c0-0.1,0-0.2,0.1-0.3s0.2-0.1,0.3-0.1
			c0.3,0,0.5,0.1,0.5,0.2c0,0,0.1,0,0.3,0.1c0.2,0.1,0.4,0.1,0.7,0.2c0.6,0.2,1.4,0.3,2.1,0.3c0.6,0,1.2-0.1,1.6-0.4
			c-0.5-0.2-0.8-0.5-0.8-0.5s-0.1-0.1-0.1-0.3c0-0.1,0-0.1,0.1-0.2c0.1-0.1,0.2-0.2,0.3-0.2c0.1,0,0.2,0,0.3,0c0.1,0,0.1,0,0.1,0
			c0.2,0,0.4,0,0.6,0c1.2,0,1.9-0.3,2.1-0.5l-1.2-1.5c0.1-0.1,0.5-0.2,0.5-0.3c0.1-0.1,0.3-0.2,0.6-0.3c0.5-0.1,1.1-0.3,1.9-0.5
			c1.6-0.5,3.7-1.3,5.9-2.5c4.3-2.4,8.5-5.3,12.7-6.3c1-0.2,2.1-0.3,3-0.3c1.1,0,2.2,0.1,3,0.3s1.7,0.9,2.6,1.7
			c0.9,0.9,1.9,2,2.8,2.9c1,1.1,1.8,1.8,2.2,2.1c0.1,0.1,0.2,0.2,0.2,0.2s0.1,0.1,0.3,0.2c0.2,0.1,0.5,0.4,0.9,0.6
			c0.7,0.4,1.5,0.8,2.2,1c0-0.2-0.4-1.8,0.3-1.5c0.3,0.1,0.5,0.4,0.7,0.6c0.3,0.3,0.6,0.5,0.9,0.7c0.5,0.3,1.1,0.6,1.6,0.6
			c0.2,0,0.3,0,0.5-0.1c-0.3-0.4-0.6-0.7-0.6-0.7s-0.1-0.1-0.1-0.3c0-0.1,0.1-0.2,0.2-0.3s0.3-0.1,0.5-0.1c0.1,0,0.2,0,0.3,0
			c0.2,0,0.5,0,0.9,0c0.7,0,1.7,0,2.5-0.2c1.2-0.2,2.2-0.5,2.6-0.7c0.1-0.1,0.2-0.1,0.2-0.1s0.3-0.1,0.7-0.1c0.2,0,0.4,0,0.5,0.1
			c0.2,0.2,0.4,0.4,0.5,0.7s0.2,0.6,0.3,0.8c0.4,0.8,1.1,1.8,1.1,3.4c0,0.2,0,0.5,0,0.7c-0.1,0.4-0.2,1.3-0.6,2
			c-0.8,1.1-1.6,1.2-1.7,1.2c0,0-0.2,0-0.4,0c-0.1,0-0.3,0-0.5,0c-0.6-0.1-1.1-0.3-1.5-0.3c-0.1,0-0.2,0-0.3,0.1
			c-0.5,0.2-0.6,0.6-0.6,0.9c0,0.4,0.2,0.7,0.2,0.8l0,0v0.1c0,0.1,0.1,0.2,0.2,0.3c0.2,0.2,0.5,0.4,1,0.4c0.1,0,0.1,0,0.2,0
			c0.4,0,0.8-0.3,1-0.5c0.3-0.3,0.5-0.5,0.6-0.6l0,0l0.7-1c0,0,0,0,0.1-0.1c0.1,0,0.1-0.1,0.2-0.1s0.1,0,0.2,0
			c0.1,0.1,0.2,0.2,0.2,0.3s0,0.1,0,0.2c0,0.1,0,0.1-0.1,0.1c0,0-0.1,0.1-0.2,0.2c-0.1,0.1-0.2,0.2-0.3,0.4
			c-0.2,0.3-0.4,0.5-0.5,0.5l0,0v0.1c0,0.1,0,0.2,0.2,0.3c0.2,0.2,0.4,0.4,0.6,0.6c0.1,0.2,0.3,0.4,0.5,0.4c0.5,0.1,0.9-0.4,1.2-0.7
			c0.2-0.2,0.5-0.5,0.6-0.8c0.2-0.5,0.2-1,0.2-1.4c0-0.2,0-0.4,0-0.6c0-0.1,0-0.2,0-0.2v-0.1c0-0.1,0-0.1,0.1-0.2
			c0.1-0.1,0.1-0.1,0.3-0.2h0.1c0.2,0,0.3,0.1,0.3,0.2c0,0.1,0,0.2,0,0.2s0,0.1,0,0.4c0,0.3,0,0.7,0,1.1c0,0.4-0.1,0.7-0.1,0.9v0.1
			c0,0.1,0,0.1,0,0.1l0.1,0.1c0.1,0,0.2,0,0.2,0l1.7-0.1l0,0c0.1,0,0.3,0,0.5-0.1s0.4-0.3,0.4-0.8c0-0.1,0-0.2,0-0.3
			c0-0.4-0.1-0.6-0.2-0.8C968.4,57.2,968.2,57.1,968.1,56.9z M942.5,52.7c-0.4-0.1-0.8-0.2-1.3-0.4c-0.8-0.5-1.4-1.5-1.4-2.2
			c0-0.8,0.5-1.9,1.2-2.6c0.5-0.5,1.1-1,1.6-1.3c0,0-2-2-2.2-2.2c-0.6-0.6-1.3-1.1-2.1-1.3c-0.9-0.2-1.7,0-2.5,0.4
			c-0.5,0.2-1,0.5-1.5,0.8c-1.9,1.2-2.9,3.4-3.2,4.2c0.1-0.1,0.2-0.1,0.3-0.2c0.3-0.2,0.7-0.5,0.9-0.5c0.1,0,0.2,0,0.2,0
			c0.2,0,0.3,0.1,0.3,0.2c0.1,0.1,0.1,0.2,0.1,0.3c0,0.2,0,0.3,0,0.3s0,0.1-0.1,0.3s-0.1,0.4-0.2,0.7c-0.1,0.5-0.2,1.1-0.3,1.7
			c0.4-0.6,0.8-1,0.8-1s0,0,0.1-0.1c0.1,0,0.1-0.1,0.2-0.1s0.1,0,0.2,0.1c0,0,0.1,0.1,0.1,0.2c0,0.1,0,0.1,0,0.2
			c0,0.7-0.2,1.5,0.2,2.2c0.3,0.6,0.5,1.1,0.2,1.7c-0.3,0.5-0.8,1-1.3,1.4c-0.3,0.2-0.6,0.3-1.1,0.4c-0.4,0-1.1,0-1.7,0.2
			c-0.7,0.2-1.3,0.8-2,1c-0.2,0-0.4,0.1-0.7,0.1c-0.8,0-1.9-0.3-2.5-0.9c-0.3-0.3-0.4-0.7-0.4-1c0-0.9,0.8-1.7,0.8-1.8v-0.1
			c0-0.1,0-0.1,0-0.2v-0.1c0,0-0.1,0-0.2,0s-0.2,0-0.3,0c-0.7,0-1.9,0-1.9,0s-0.5,0-0.8,0.3l0,0l-0.1,0.1c-0.1,0.1-0.2,0.3-0.3,0.5
			c-0.1,0.3,0,0.8-0.1,1.4c-0.1,0.5-0.4,1.2-0.5,1.6c0,0.1,0,0.2,0,0.2c0,0.6,0.3,1.1,0.5,1.4c0.7,1,2.1,1.6,3.4,2s2.5,0.5,3,0.6
			c0.1,0,0.2,0,0.2,0c0.2,0,2.1-0.6,2.8-0.7c0.7-0.1,2.3-0.3,3.1-0.4l-1.1-0.5c0,0-0.1,0-0.1-0.1c-0.1-0.1-0.1-0.2-0.1-0.3
			s0-0.1,0-0.2c0-0.1,0.1-0.2,0.2-0.2s0.2,0,0.2,0c0.1,0,0.2,0,0.2,0s0.3,0,0.7,0.1c0.4,0,1,0.1,1.5,0.1c0.4,0,0.9,0,1.2-0.1
			c0.9-0.1,1.4-0.5,1.6-0.7c-0.1,0-0.1,0-0.2,0c-0.2,0-0.4-0.1-0.5-0.1c-0.2-0.1-0.4-0.2-0.5-0.3c-0.1,0-0.1-0.1-0.2-0.1
			c-0.1-0.1-0.1-0.2-0.1-0.3l0,0c0-0.1,0.1-0.1,0.1-0.2c0.1,0,0.1-0.1,0.2-0.1s0.2-0.1,0.2-0.1s0.3,0,0.8-0.1c0.4-0.1,1-0.2,1.4-0.3
			c0.6-0.2,1.3-0.7,1.6-0.9c-0.1,0-0.2-0.1-0.4-0.2c-0.3-0.1-0.7-0.3-0.9-0.6l-0.1-0.1c-0.1-0.1-0.1-0.2-0.1-0.3v-0.1
			c0-0.1,0.1-0.1,0.1-0.1c0.1,0,0.1-0.1,0.2-0.1s0.2-0.1,0.2-0.1s0.1,0,0.2-0.1c0.2,0,0.4-0.1,0.6-0.1c0.5-0.1,1.1-0.3,1.5-0.5
			c0.2-0.1,0.4-0.3,0.4-0.4c0,0,0,0-0.1,0C942.8,52.8,942.6,52.7,942.5,52.7z M916.9,57.7c-0.2,0.2-0.3,0.4-0.3,0.6
			c0.1,0,0.1-0.1,0.2-0.1c0.4-0.3,0.8-0.5,1.1-0.5c0-0.1,0.1-0.3,0.1-0.4v-0.1l0,0c0-0.1,0.1-0.2,0.1-0.3
			C917.6,57.1,917.2,57.4,916.9,57.7z M921,59.5c-0.1,0.1-0.2,0.2-0.3,0.3c0,0-0.1,0.1-0.2,0.2c0,0.1-0.1,0.1-0.1,0.2
			c0,0.1,0,0.2,0,0.3c0,0.2,0,0.3,0.2,0.5c0.1,0.2,0.4,0.4,0.7,0.6c0.3,0.1,0.6,0.2,0.8,0.2c0.4,0,0.7-0.2,0.8-0.4
			c0.1-0.2,0.2-0.4,0.3-0.6c-0.7-0.3-1.4-0.7-1.9-1.3C921.2,59.4,921.1,59.5,921,59.5z M920.8,58.7c-0.2-0.4-0.5-0.9-0.5-1.6
			c0-0.1,0-0.2,0-0.3l0,0c-0.2,0-0.6,0-0.8,0h-0.1h-0.1c-0.1,0-0.1,0-0.2,0s-0.2,0-0.2,0.1c-0.1,0.1-0.2,0.3-0.3,0.6
			c-0.1,0.2-0.1,0.5-0.1,0.7c0,0.1,0,0.2,0.1,0.3s0.1,0.2,0.3,0.2c0.6,0.2,1,0.3,1.3,0.3h0.1c0.1,0,0.2,0,0.3-0.1
			C920.7,58.9,920.8,58.8,920.8,58.7z M919.8,60.7c-0.4,0.5-0.5,1.1-0.5,1.5l0,0c0-0.1,0.1-0.1,0.1-0.2c0.1-0.3,0.3-0.5,0.5-0.7
			C919.8,61.1,919.8,60.9,919.8,60.7C919.8,60.8,919.8,60.7,919.8,60.7z M891.7,28.1c0.5,0.4,1.1,0.7,1.8,0.9
			c0.6,0.2,1.2,0.2,1.8,0.2c1.2,0,2.3-0.2,3.4-0.4c1.1-0.2,2.2-0.4,3.3-0.4c1.1,0,2.2,0.3,3.1,0.9c-0.8-0.8-1.9-1.2-3.1-1.4
			c-1.1-0.2-2.3-0.1-3.4-0.1s-2.2,0.1-3.2,0s-2-0.5-2.6-1.1l-0.1-0.1c-0.4-0.3-0.9-0.2-1.2,0.1C891.3,27.3,891.4,27.8,891.7,28.1
			L891.7,28.1z"/>
		<path class="st2" d="M894.7,143.5c0.2-1,0.4-2,0.6-2.9l0,0c1.8,1,4.9,1.6,8.5,2.2c4.6,0.8,10.1,1.8,14,4.1c-1-0.4-2.2-0.8-3.6-1.2
			c-4.9-1.3-7.4-1.2-9.8-1.1C901.9,144.7,899.4,144.8,894.7,143.5z M949.8,144.9c-5,1.1-7.6,1-10.1,0.9c-2.6-0.1-5-0.2-10.1,0.9
			c-1.8,0.4-3.2,0.8-4.3,1.2c1.2-0.3,2.7-0.6,4.8-0.8c5.3-0.6,7.8-0.2,10.3,0.2c2.4,0.4,4.9,0.7,9.7,0.2
			C950.1,146.7,950,145.8,949.8,144.9z M926.6,146.9c1-0.4,2.2-0.8,3.6-1.2c4.9-1.3,7.4-1.2,9.8-1.1c2.4,0.1,4.8,0.2,9.5-1
			c-0.2-1-0.4-2-0.6-2.9l0,0c-1.8,1-4.9,1.6-8.5,2.2C935.9,143.6,930.4,144.6,926.6,146.9z M904.6,145.8c-2.5,0.1-5.1,0.2-10.1-0.9
			c-0.2,0.9-0.3,1.8-0.4,2.7c4.9,0.5,7.4,0.1,9.7-0.2c2.5-0.4,5.1-0.7,10.3-0.2c2.1,0.2,3.6,0.5,4.8,0.8c-1.1-0.4-2.5-0.8-4.3-1.2
			C909.6,145.6,907.2,145.7,904.6,145.8z M900.8,124l-5.1,15.3c4.3,2.8,20.1,2.1,26,9.1v-16.3C920,125.1,905,126.7,900.8,124z
			 M943.5,124c-4.3,2.8-19.3,1.1-20.9,8.1v16.3c5.9-7,21.7-6.3,26-9.1L943.5,124z"/>
		<g>
			<path class="st2" d="M873.5,83.1l0.7,1.2c0.3,0.5,0.8,0.8,1.4,0.8l0,0c-0.3,0.6-0.5,1.4-0.6,2.5c0,0.2,0,0.4,0,0.6
				c0,0.5,0,1.3-0.2,1.6c-0.1,0.1-0.2,0.3-0.4,0.5c-0.3,0.4-0.9,1-0.6,1.8l0,0l0,0c0.3,0.8,1.1,1,1.6,1.1c0.2,0,0.4,0.1,0.6,0.2
				c0.4,0.2,0.8,0.8,1.1,1.2c0.1,0.2,0.2,0.3,0.4,0.5c0.7,0.9,1.5,1.5,2.3,1.8c-0.6,0.3-0.9,1-0.8,1.7l0.3,1.4
				c0.2,0.7,0.8,1.2,1.5,1.2c0.1,0,0.2,0,0.3,0l1.4-0.3c0.6-0.1,1-0.6,1.2-1.1c0.5,0.5,1.3,1,2.2,1.3c0.2,0.1,0.4,0.1,0.6,0.2
				c0.5,0.2,1.2,0.4,1.5,0.7c0.1,0.1,0.2,0.3,0.3,0.5c0.2,0.4,0.7,1.2,1.5,1.2l0,0l0,0l0,0l0,0c0.9,0,1.3-0.7,1.5-1.2
				c0.1-0.2,0.2-0.4,0.3-0.5c0.3-0.3,1-0.5,1.5-0.7c0.2-0.1,0.4-0.1,0.6-0.2c1.1-0.4,1.9-0.9,2.4-1.6c0,0.3,0.2,0.5,0.3,0.7
				c0.3,0.3,0.6,0.5,1.1,0.6l1.4,0.1c0.1,0,0.1,0,0.2,0c0.8,0,1.5-0.6,1.6-1.4l0.1-1.4c0-0.4-0.1-0.8-0.3-1.2
				c-0.1-0.1-0.2-0.2-0.3-0.3c0.7-0.3,1.3-0.9,1.9-1.7c0.1-0.1,0.2-0.3,0.4-0.5c0.3-0.4,0.7-1,1.1-1.2c0.2-0.1,0.4-0.1,0.6-0.2
				c0.5-0.1,1.3-0.3,1.6-1.1l0,0l0,0l0,0c0.3-0.8-0.3-1.5-0.6-1.8c-0.1-0.2-0.3-0.3-0.4-0.5c-0.2-0.3-0.2-1.1-0.2-1.6
				c0-0.2,0-0.4,0-0.6c0-1.2-0.3-2.1-0.8-2.8c0.1,0,0.1,0,0.2,0c0.6,0,1.2-0.4,1.4-0.9l0.6-1.3c0.2-0.4,0.2-0.8,0-1.2
				c-0.2-0.4-0.4-0.7-0.8-0.9l-1.3-0.6c-0.2-0.1-0.4-0.1-0.6-0.1c-0.4,0-0.7,0.1-1,0.3c-0.1-0.7-0.4-1.5-1-2.4
				c-0.1-0.2-0.2-0.3-0.3-0.5c-0.3-0.4-0.8-1-0.8-1.4c0-0.2,0-0.4,0-0.6c0.1-0.5,0.1-1.3-0.6-1.8l-0.1,0.1l0,0l0.1-0.1
				c-0.2-0.2-0.5-0.3-0.9-0.3s-0.7,0.2-1.1,0.3c-0.2,0.1-0.4,0.2-0.5,0.2c0,0-0.1,0-0.2,0c-0.4,0-1-0.2-1.4-0.3
				c-0.2-0.1-0.4-0.1-0.6-0.2c-0.6-0.2-1.2-0.3-1.8-0.3c-0.3,0-0.7,0-1.1,0.1c0.1-0.2,0.2-0.5,0.2-0.8c0-0.4-0.2-0.8-0.5-1.1l-1-0.9
				c-0.3-0.3-0.7-0.4-1.1-0.4s-0.9,0.2-1.2,0.5l-0.9,1c-0.4,0.4-0.5,1.1-0.3,1.6c-0.3,0-0.5-0.1-0.8-0.1c-0.5,0-1.1,0.1-1.8,0.3
				c-0.2,0.1-0.4,0.1-0.6,0.2c-0.5,0.2-1,0.3-1.4,0.3c-0.1,0-0.1,0-0.2,0c-0.2,0-0.4-0.1-0.5-0.2c-0.3-0.1-0.7-0.3-1.1-0.3
				c-0.3,0-0.6,0.1-0.9,0.3l0,0l0,0c-0.7,0.5-0.6,1.3-0.6,1.8c0,0.2,0,0.4,0,0.6c0,0.4-0.5,1-0.8,1.4c-0.1,0.2-0.2,0.3-0.4,0.5
				c-0.6,0.9-1,1.9-1,2.7c-0.3-0.3-0.7-0.4-1.1-0.4c-0.3,0-0.6,0.1-0.8,0.2l-1.2,0.7c-0.4,0.2-0.6,0.6-0.7,1
				C873.2,82.3,873.3,82.7,873.5,83.1"/>
			<path class="st2" d="M889.6,80c1.6,0,2.9,1.1,3.2,2.6c0.1,0,0.3,0,0.4,0c1.4,0,2.7,0.9,3.1,2.2c0.5,1.5-0.2,3.1-1.5,3.8
				c0.3,0.6,0.4,1.3,0.3,1.9c-0.1,0.9-0.6,1.6-1.3,2.1c-0.6,0.4-1.2,0.6-1.9,0.6c-0.8,0-1.6-0.3-2.2-0.9c-0.6,0.6-1.4,0.9-2.2,0.9
				c-0.7,0-1.3-0.2-1.9-0.6c-1.3-0.9-1.7-2.6-1-4c-0.6-0.3-1-0.8-1.4-1.4c-0.4-0.8-0.5-1.7-0.2-2.5c0.4-1.3,1.7-2.2,3.1-2.2
				c0.1,0,0.2,0,0.4,0c0.1-0.6,0.4-1.2,0.9-1.7S888.8,80,889.6,80"/>
			<path class="st1" d="M890,80c1.4,0.2,2.5,1.2,2.8,2.6c0.1,0,0.3,0,0.4,0c1.3,0,2.4,0.7,2.9,1.9c1.1-0.3,2-0.8,2.6-1.1
				c2.6-1.3,2.7-3,1.4-5c-0.4-0.6-1.3-1.5-1.4-2.5c-0.1-0.7,0.2-1.4,0-1.6l0,0c-0.2-0.2-0.8,0.3-1.5,0.4c-0.9,0.2-2.1-0.3-2.8-0.5
				c-2.3-0.7-3.9,0-4.3,2.9C890.2,77.8,890,78.8,890,80 M889.4,74c0.1,0.1,0.4,0.1,0.5,0l0.9-1.5c0.1-0.1,0.1-0.4,0-0.5l-1-0.9
				c-0.1-0.1-0.4-0.1-0.5,0l-0.9,1c-0.1,0.1-0.1,0.4,0,0.5L889.4,74z M880.6,83.3c0.6,0.3,1.5,0.8,2.6,1.1c0.5-1.1,1.7-1.8,2.9-1.8
				c0.1,0,0.2,0,0.4,0c0.1-0.6,0.4-1.2,0.9-1.7s1.3-0.9,2-0.9c0.1-1.1-0.1-2.2-0.2-2.8c-0.4-2.8-2-3.5-4.3-2.9
				c-0.7,0.2-1.8,0.7-2.8,0.5c-0.7-0.1-1.3-0.6-1.5-0.4s0,0.9,0,1.6c-0.1,0.9-1,1.9-1.4,2.5C877.9,80.4,878.1,82.1,880.6,83.3
				 M874.6,82.4l0.7,1.2c0.1,0.2,0.3,0.2,0.5,0.1l1.6-0.6c0.2-0.1,0.2-0.3,0.1-0.5l-1.1-1.3c-0.1-0.2-0.3-0.2-0.5-0.1l-1.2,0.7
				C874.5,82,874.5,82.3,874.6,82.4 M902,83l1.7,0.4c0.2,0.1,0.4,0,0.5-0.2l0.6-1.3c0.1-0.2,0-0.4-0.2-0.5l-1.3-0.6
				c-0.2-0.1-0.4,0-0.5,0.2l-1,1.4C901.8,82.8,901.9,83,902,83 M882.4,97.5c0-0.2-0.2-0.3-0.4-0.3l-1.6,0.7c-0.2,0-0.3,0.2-0.3,0.4
				l0.3,1.4c0,0.2,0.2,0.3,0.4,0.3l1.4-0.3c0.2,0,0.3-0.2,0.3-0.4L882.4,97.5z M903.2,87.5c-0.1-2.4-1.2-3.7-4.1-3.2
				c-0.6,0.1-1.7,0.3-2.8,0.7c0.3,1.4-0.3,2.9-1.6,3.6c0.3,0.6,0.4,1.3,0.3,1.9c-0.1,0.7-0.5,1.4-1,1.8c0.6,0.9,1.3,1.6,1.7,2
				c2,2,3.7,1.7,5.2-0.2c0.4-0.6,1.1-1.7,1.9-2c0.6-0.3,1.4-0.2,1.5-0.5l0,0l0,0c0.1-0.3-0.5-0.7-0.9-1.3
				C903.1,89.5,903.2,88.3,903.2,87.5 M884.5,88.7c-0.6-0.3-1.1-0.8-1.4-1.4c-0.4-0.7-0.5-1.5-0.2-2.3c-1-0.4-2-0.5-2.6-0.6
				c-2.8-0.5-4,0.8-4.1,3.2c0,0.7,0.1,2-0.3,2.8c-0.3,0.6-1,1-0.9,1.3l0,0c0.1,0.3,0.8,0.2,1.5,0.5c0.8,0.4,1.5,1.5,1.9,2
				c1.5,1.9,3.2,2.2,5.2,0.2c0.4-0.4,1.1-1.1,1.7-2C884.3,91.5,884,90,884.5,88.7 M899.2,97.6l-1.7-0.5c-0.2,0-0.4,0.1-0.4,0.3
				l0.1,1.7c0,0.2,0.1,0.4,0.3,0.4l1.4,0.1c0.2,0,0.4-0.1,0.4-0.3l0.1-1.4C899.6,97.8,899.4,97.6,899.2,97.6 M895,95.1
				c1.3,2.5,0.5,4-1.8,4.8c-0.7,0.2-1.9,0.5-2.5,1.2c-0.5,0.5-0.7,1.2-1,1.2s-0.5-0.7-1-1.2c-0.6-0.7-1.9-0.9-2.5-1.2
				c-2.3-0.8-3.1-2.3-1.8-4.8c0.3-0.5,0.7-1.4,1.3-2.2c0.5,0.3,1.1,0.5,1.7,0.5c0.8,0,1.6-0.3,2.2-0.9c0.6,0.5,1.4,0.9,2.2,0.9
				c0.6,0,1.2-0.2,1.7-0.5C894.3,93.6,894.7,94.5,895,95.1"/>
			<path class="st1" d="M885.4,87.8c0.2,0.1,0.4,0.1,0.5,0.1l0,0c0.1,0,0.2,0.1,0.3,0.1c0.1,0.2,0.1,0.4-0.1,0.5l0,0
				c-0.1,0.1-0.2,0.2-0.3,0.4c-0.7,0.9-0.5,2.2,0.4,2.8c0.9,0.7,2.2,0.5,2.8-0.4c0.1-0.2,0.2-0.3,0.3-0.5l0,0c0-0.1,0.1-0.2,0.2-0.2
				c0.2-0.1,0.4,0,0.4,0.2l0,0c0.1,0.1,0.1,0.3,0.2,0.4c0.7,0.9,1.9,1.1,2.8,0.4s1.1-1.9,0.4-2.8c-0.1-0.1-0.2-0.3-0.4-0.4l0,0
				c-0.1-0.1-0.1-0.2-0.1-0.3c0-0.2,0.1-0.3,0.3-0.4l0,0c0.2,0,0.3,0,0.5-0.1c1.1-0.3,1.6-1.5,1.3-2.5c-0.3-1.1-1.5-1.6-2.5-1.3
				c-0.2,0.1-0.3,0.1-0.5,0.2l0,0c-0.1,0.1-0.2,0.1-0.3,0c-0.2-0.1-0.3-0.2-0.2-0.4l0,0c0-0.2,0.1-0.3,0.1-0.5c0-1.1-0.9-2-2-2
				s-2,0.9-2,2c0,0.2,0,0.4,0.1,0.5l0,0c0,0.1,0,0.2-0.1,0.3c-0.1,0.2-0.3,0.2-0.5,0.1l0,0c-0.1-0.1-0.3-0.2-0.4-0.2
				c-1.1-0.3-2.2,0.2-2.5,1.3C883.8,86.3,884.4,87.4,885.4,87.8"/>
			<path class="st2" d="M888,87c0-0.9,0.7-1.6,1.6-1.6s1.6,0.7,1.6,1.6s-0.7,1.6-1.6,1.6C888.7,88.5,888,87.8,888,87"/>
		</g>
		<g>
			<path class="st2" d="M970.7,83.1l-0.7,1.2c-0.3,0.5-0.8,0.8-1.4,0.8l0,0c0.3,0.6,0.5,1.4,0.6,2.5c0,0.2,0,0.4,0,0.6
				c0,0.5,0,1.3,0.2,1.6c0.1,0.1,0.2,0.3,0.4,0.5c0.3,0.4,0.9,1,0.6,1.8l0,0l0,0c-0.3,0.8-1.1,1-1.6,1.1c-0.2,0-0.4,0.1-0.6,0.2
				c-0.4,0.2-0.8,0.8-1.1,1.2c-0.1,0.2-0.2,0.3-0.4,0.5c-0.7,0.9-1.5,1.5-2.3,1.8c0.6,0.3,0.9,1,0.8,1.7l-0.3,1.4
				c-0.2,0.7-0.8,1.2-1.5,1.2c-0.1,0-0.2,0-0.3,0l-1.4-0.3c-0.6-0.1-1-0.6-1.2-1.1c-0.5,0.5-1.3,1-2.2,1.3c-0.2,0.1-0.4,0.1-0.6,0.2
				c-0.5,0.2-1.2,0.4-1.5,0.7c-0.1,0.1-0.2,0.3-0.3,0.5c-0.2,0.4-0.7,1.2-1.5,1.2l0,0l0,0l0,0l0,0c-0.9,0-1.3-0.7-1.5-1.2
				c-0.1-0.2-0.2-0.4-0.3-0.5c-0.3-0.3-1-0.5-1.5-0.7c-0.2-0.1-0.4-0.1-0.6-0.2c-1.1-0.4-1.9-0.9-2.4-1.6c0,0.3-0.2,0.5-0.3,0.7
				c-0.3,0.3-0.6,0.5-1.1,0.6l-1.4,0.1c-0.1,0-0.1,0-0.2,0c-0.8,0-1.5-0.6-1.6-1.4l-0.1-1.4c0-0.4,0.1-0.8,0.3-1.2
				c0.1-0.1,0.2-0.2,0.3-0.3c-0.7-0.3-1.3-0.9-1.9-1.7c-0.1-0.1-0.2-0.3-0.4-0.5c-0.3-0.4-0.7-1-1.1-1.2c-0.2-0.1-0.4-0.1-0.6-0.2
				c-0.5-0.1-1.3-0.3-1.6-1.1l0,0l0,0l0,0c-0.3-0.8,0.3-1.5,0.6-1.8c0.1-0.2,0.3-0.3,0.4-0.5c0.2-0.3,0.2-1.1,0.2-1.6
				c0-0.2,0-0.4,0-0.6c0-1.2,0.3-2.1,0.8-2.8c-0.1,0-0.1,0-0.2,0c-0.6,0-1.2-0.4-1.4-0.9l-0.6-1.3c-0.2-0.4-0.2-0.8,0-1.2
				c0.2-0.4,0.4-0.7,0.8-0.9l1.3-0.6c0.2-0.1,0.4-0.1,0.6-0.1c0.4,0,0.7,0.1,1,0.3c0.1-0.7,0.4-1.5,1-2.4c0.1-0.2,0.2-0.3,0.3-0.5
				c0.3-0.4,0.8-1,0.8-1.4c0-0.2,0-0.4,0-0.6c-0.1-0.5-0.1-1.3,0.6-1.8l0.1,0.1l0,0l-0.1-0.1c0.2-0.2,0.5-0.3,0.9-0.3
				s0.7,0.2,1.1,0.3c0.2,0.1,0.4,0.2,0.5,0.2c0,0,0.1,0,0.2,0c0.4,0,1-0.2,1.4-0.3c0.2-0.1,0.4-0.1,0.6-0.2c0.6-0.2,1.2-0.3,1.8-0.3
				c0.3,0,0.7,0,1.1,0.1c-0.1-0.2-0.2-0.5-0.2-0.8c0-0.4,0.2-0.8,0.5-1.1l1-0.9c0.3-0.3,0.7-0.4,1.1-0.4s0.9,0.2,1.2,0.5l0.9,1
				c0.4,0.4,0.5,1.1,0.3,1.6c0.3,0,0.5-0.1,0.8-0.1c0.5,0,1.1,0.1,1.8,0.3c0.2,0.1,0.4,0.1,0.6,0.2c0.5,0.2,1,0.3,1.4,0.3
				c0.1,0,0.1,0,0.2,0c0.2,0,0.4-0.1,0.5-0.2c0.3-0.1,0.7-0.3,1.1-0.3c0.3,0,0.6,0.1,0.9,0.3l0,0l0,0c0.7,0.5,0.6,1.3,0.6,1.8
				c0,0.2,0,0.4,0,0.6c0,0.4,0.5,1,0.8,1.4c0.1,0.2,0.2,0.3,0.3,0.5c0.6,0.9,1,1.9,1,2.7c0.3-0.3,0.7-0.4,1.1-0.4
				c0.3,0,0.6,0.1,0.8,0.2l1.2,0.7c0.4,0.2,0.6,0.6,0.7,1C971,82.3,971,82.7,970.7,83.1"/>
			<path class="st2" d="M954.6,80c-1.6,0-2.9,1.1-3.2,2.6c-0.1,0-0.3,0-0.4,0c-1.4,0-2.7,0.9-3.1,2.2c-0.5,1.5,0.2,3.1,1.5,3.8
				c-0.3,0.6-0.4,1.3-0.3,1.9c0.1,0.9,0.6,1.6,1.3,2.1c0.6,0.4,1.2,0.6,1.9,0.6c0.8,0,1.6-0.3,2.2-0.9c0.6,0.6,1.4,0.9,2.2,0.9
				c0.7,0,1.3-0.2,1.9-0.6c1.3-0.9,1.7-2.6,1-4c0.6-0.3,1-0.8,1.4-1.4c0.4-0.8,0.5-1.7,0.2-2.5c-0.4-1.3-1.7-2.2-3.1-2.2
				c-0.1,0-0.2,0-0.4,0c-0.1-0.6-0.4-1.2-0.9-1.7C956.3,80.3,955.5,80,954.6,80"/>
			<path class="st1" d="M954.2,80c0.1-1.1-0.1-2.2-0.2-2.9c-0.4-2.8-2-3.5-4.3-2.9c-0.7,0.2-1.8,0.7-2.8,0.5
				c-0.7-0.1-1.3-0.6-1.5-0.4l0,0c-0.2,0.2,0,0.9,0,1.6c-0.1,0.9-1,1.9-1.4,2.5c-1.3,2-1.2,3.7,1.4,5c0.6,0.3,1.5,0.8,2.6,1.1
				c0.5-1.1,1.7-1.9,2.9-1.9c0.1,0,0.3,0,0.4,0C951.7,81.2,952.8,80.2,954.2,80 M955.9,72.6c0.1-0.1,0.2-0.4,0-0.5l-0.9-1
				c-0.1-0.1-0.4-0.2-0.5,0l-1,0.9c-0.1,0.1-0.2,0.4,0,0.5l0.9,1.5c0.1,0.1,0.4,0.2,0.5,0L955.9,72.6z M963.6,83.3
				c2.6-1.3,2.7-3,1.4-5c-0.4-0.6-1.3-1.5-1.4-2.5c-0.1-0.7,0.2-1.4,0-1.6s-0.8,0.3-1.5,0.4c-0.9,0.2-2.1-0.3-2.8-0.5
				c-2.3-0.7-3.9,0-4.3,2.9c-0.1,0.7-0.3,1.7-0.2,2.8c0.8,0.1,1.5,0.4,2,0.9s0.8,1.1,0.9,1.7c0.1,0,0.2,0,0.4,0
				c1.2,0,2.4,0.7,2.9,1.8C962.1,84.1,963.1,83.6,963.6,83.3 M969.7,82.4c0.1-0.2,0-0.4-0.1-0.5l-1.2-0.7c-0.2-0.1-0.4,0-0.5,0.1
				l-1.1,1.3c-0.1,0.2,0,0.4,0.1,0.5l1.6,0.6c0.2,0.1,0.4,0,0.5-0.1L969.7,82.4 M942.2,83c0.2-0.1,0.3-0.3,0.2-0.5l-1-1.4
				c-0.1-0.2-0.3-0.3-0.5-0.2l-1.3,0.6c-0.2,0.1-0.3,0.3-0.2,0.5l0.6,1.3c0.1,0.2,0.3,0.3,0.5,0.2L942.2,83 M961.8,99.2
				c0,0.2,0.1,0.4,0.3,0.4l1.4,0.3c0.2,0,0.4-0.1,0.4-0.3l0.3-1.4c0-0.2-0.1-0.4-0.3-0.4l-1.6-0.7c-0.2,0-0.4,0.1-0.4,0.3
				L961.8,99.2z M941,87.5c0,0.7,0.1,2-0.3,2.8c-0.3,0.6-1,1-0.9,1.3l0,0l0,0c0.1,0.3,0.8,0.3,1.5,0.5c0.8,0.4,1.5,1.5,1.9,2
				c1.5,1.9,3.2,2.2,5.2,0.2c0.4-0.4,1.1-1.2,1.7-2c-0.5-0.5-0.9-1.1-1-1.8c-0.1-0.7,0-1.3,0.3-1.9c-1.2-0.7-1.9-2.2-1.6-3.6
				c-1.1-0.4-2.1-0.6-2.8-0.7C942.3,83.9,941.1,85.1,941,87.5 M959.7,88.7c0.6,1.3,0.3,2.8-0.8,3.7c0.6,0.9,1.3,1.6,1.7,2
				c2,2,3.7,1.7,5.2-0.2c0.4-0.6,1.1-1.7,1.9-2c0.6-0.3,1.4-0.2,1.5-0.5l0,0c0.1-0.3-0.5-0.7-0.9-1.3c-0.5-0.8-0.3-2.1-0.3-2.8
				c-0.1-2.4-1.2-3.7-4.1-3.2c-0.6,0.1-1.6,0.3-2.6,0.6c0.2,0.8,0.1,1.6-0.2,2.3C960.8,87.9,960.3,88.4,959.7,88.7 M945,97.6
				c-0.2,0-0.3,0.2-0.3,0.4l0.1,1.4c0,0.2,0.2,0.3,0.4,0.3l1.4-0.1c0.2,0,0.3-0.2,0.3-0.4l0.1-1.7c0-0.2-0.2-0.3-0.4-0.3L945,97.6
				 M949.2,95.1c0.3-0.6,0.7-1.4,1.4-2.3c0.5,0.3,1.1,0.5,1.7,0.5c0.8,0,1.6-0.3,2.2-0.9c0.6,0.6,1.4,0.9,2.2,0.9
				c0.6,0,1.2-0.2,1.7-0.5c0.6,0.8,1.1,1.7,1.3,2.2c1.3,2.5,0.5,4-1.8,4.8c-0.7,0.2-1.9,0.5-2.5,1.2c-0.5,0.5-0.7,1.2-1,1.2
				s-0.5-0.7-1-1.2c-0.6-0.7-1.9-0.9-2.5-1.2C948.7,99.1,947.9,97.6,949.2,95.1"/>
			<path class="st1" d="M958.8,87.8c-0.2,0.1-0.4,0.1-0.5,0.1l0,0c-0.1,0-0.2,0.1-0.3,0.1c-0.1,0.2-0.1,0.4,0.1,0.5l0,0
				c0.1,0.1,0.2,0.2,0.3,0.4c0.7,0.9,0.5,2.2-0.4,2.8c-0.9,0.7-2.2,0.5-2.8-0.4c-0.1-0.2-0.2-0.3-0.3-0.5l0,0c0-0.1-0.1-0.2-0.2-0.2
				c-0.2-0.1-0.4,0-0.4,0.2l0,0c-0.1,0.1-0.1,0.3-0.2,0.4c-0.7,0.9-1.9,1.1-2.8,0.4s-1.1-1.9-0.4-2.8c0.1-0.1,0.2-0.3,0.4-0.4l0,0
				c0.1-0.1,0.1-0.2,0.1-0.3c0-0.2-0.1-0.3-0.3-0.4l0,0c-0.2,0-0.3,0-0.5-0.1c-1.1-0.3-1.6-1.5-1.3-2.5c0.3-1.1,1.5-1.6,2.5-1.3
				c0.2,0.1,0.3,0.1,0.5,0.2l0,0c0.1,0.1,0.2,0.1,0.3,0c0.2-0.1,0.3-0.2,0.2-0.4l0,0c0-0.2-0.1-0.3-0.1-0.5c0-1.1,0.9-2,2-2
				s2,0.9,2,2c0,0.2,0,0.4-0.1,0.5l0,0c0,0.1,0,0.2,0.1,0.3c0.1,0.2,0.3,0.2,0.5,0.1l0,0c0.1-0.1,0.3-0.2,0.4-0.2
				c1.1-0.3,2.2,0.2,2.5,1.3C960.4,86.3,959.9,87.4,958.8,87.8"/>
			<path class="st2" d="M956.3,87c0-0.9-0.7-1.6-1.6-1.6s-1.6,0.7-1.6,1.6s0.7,1.6,1.6,1.6C955.6,88.5,956.3,87.8,956.3,87"/>
		</g>
		<path class="st3" d="M631.4,51.9c0-6.4,1.9-12.2,6.5-16c3.5-2.8,8.3-4.4,13.1-4.4c4.6,0,8.7,1.4,11.9,3.6c0,0,4.3,2.7,4.3,7.3
			c0,2.3-1.8,4.1-4.1,4.1c-2.2,0-3.8-1.8-3.7-4.1c0.1-1.1,0.2-3-0.5-4.5c-1.9-3.8-7.2-3.6-7.2-3.6c-7.8,0-11.1,7.7-11.1,17.3
			c0,12.7,7,17.3,12.9,17.3c0,0,6.7,0.1,12.5-7.5l2.4,1.5c-3.6,5.5-9.8,9.1-16.9,9.1C640.5,72.2,631.4,63.1,631.4,51.9z M647.5,92.1
			H632v2l5.8,1.6l-9.2,25.7l-9.5-25.7l5.4-1.4V92h-17.9v2.2l4.7,1.3l13.1,32.4h4.3l13.7-32.3l5.2-1.4L647.5,92.1L647.5,92.1z
			 M534.4,81.5L534.4,81.5L534.4,81.5l6.6-1.8v-2.5h-17.9v2.3l7.1,1.9v32.8c0,0,0.5,11-14,11s-14.5-9.6-14.5-11c0-1.3,0-27.5,0-32.7
			l7.2-2v-2.2h-21.7v2.3l7.1,1.9v32.3c0,0-1.2,15.3,20.6,15.3c20.7,0,19.4-14.4,19.4-14.4V81.5H534.4z M821.8,94.2l6.3,1.7
			l-9.4,25.1l-10.2-25.4l5.2-1.4V92h-17.4v2.3l4.8,1.3l14.1,34.7c-0.9,1.7-1.8,3.4-2.7,5.1c-1.1,2.1-3.3,5.4-5.9,5.6
			c-2.4,0.2-3-2.7-4.9-3.7c-3.4-1.8-6.5,2.7-4.3,5.5c1.1,1.4,3.1,2.3,4.8,2.4c1.9,0.1,3.9-0.2,5.6-1c0.9-0.4,1.9-1.1,2.7-1.7
			c1.6-1.4,2.8-3.2,3.8-5.2c1.7-3.2,3.3-6.3,4.6-9.6c1.2-2.8,2.4-5.6,3.6-8.5c1.5-3.4,2.9-6.9,4.3-10.3c1.3-3,2.5-5.9,3.7-8.9
			c0.6-1.4,1.2-2.9,1.8-4.3v-0.1l5.1-1.4V92h-15.9v2.2H821.8z M535,54.2l-1.9-0.7l0,0l-0.3-0.1c-5.4,9.3-16,15-23,15
			c0,0-7.3,0.4-7.3-6.2l0,0V20.6l7-2l0.1-1.8h-22.2v2.1l6.7,1.7v46.3l-6.7,1.8v2.7h41.4L535,54.2z M587.8,66.8l-6.7,2.1v2.4h21.1
			v-2.4l-6.7-2.1V42.2l0,0c1.9-1.5,3.8-2.8,5.9-3.9c2.6-1.4,6-3,9-2.5c1.5,0.2,3.3,1.3,4.2,2.6c1.4,1.9,1.8,4.4,1.8,6.7v21.6
			c0-0.2,0,0.2,0,0.2l-6.7,2.1v2.5H631v-2.4l-6.6-2.1V42.1c0-2.8-0.9-5.3-3.1-7.1c-2.2-1.9-5.1-2.8-7.9-3.2
			c-5.1-0.6-10.2,1.2-14.4,4c-1.2,0.8-2.4,1.7-3.6,2.5v-5.8h-2.8l-11.8,3.1V38h7L587.8,66.8L587.8,66.8z M616.5,66.6L616.5,66.6
			L616.5,66.6z M571.8,123.5L571.8,123.5L571.8,123.5z M579.2,123.6V101c0-2.5-0.9-4.8-2.8-6.5c-2.1-1.7-4.7-2.6-7.3-2.9
			c-4.7-0.5-9.3,1.1-13.2,3.7c-1.1,0.7-2.2,1.5-3.3,2.3v-5.3H550l-10.9,2.9v2.2h6.4v26.4l-6.1,2v2.2h19.4v-2.2l-6.2-2v-22.5l0,0
			c1.7-1.3,3.5-2.6,5.4-3.6c2.4-1.3,5.5-2.7,8.3-2.3c1.4,0.2,3,1.2,3.9,2.4c1.3,1.7,1.7,4.1,1.7,6.2v19.8c0-0.1,0,0.2,0,0.2
			l-6.1,1.9v2.3h19.6v-2.3L579.2,123.6z M733.7,47c-5.9-1.1-10.7-2.7-10.7-6.7c0-4.8,5.8-5.2,8.2-5.1c11,0.4,14,9.6,14,9.6h2.5
			l-2.5-12.1H743l-0.8,2.6c-1.9-1.3-5.9-3.5-10.8-3.5c-9.7,0-15.3,5.6-15.3,11.8s7.9,8.8,13.9,10.5c5.8,1.7,13.6,2,13.6,7.8
			c0,7-9.6,6.9-9.6,6.9c-13,0-16.3-11.6-16.3-11.6H715l2.6,14.2h2.6l0.9-3.2c0,0,6.5,3.8,13.3,3.8c9.7,0,16.2-6.3,16.2-13.1
			C750.6,49.8,739.9,48.2,733.7,47z M787.8,125.5c-3.1,0-5.2-2.4-5.6-4.9c-0.2-1.1-0.1-3-0.1-4.8V94.3h10.6V92h-10.6V78.3h-3.4
			c0,0,0.2,6.1-2.9,10.4c-2.3,3.3-6.9,3.5-6.9,3.5v2.3h5.9v21.9c0,1.7,0,3.4,0,4.5c0,4.8,4.7,7.6,10,7.6c6.8,0,9.5-2.9,11.4-4.8
			l-1.8-1.6C792.2,123.8,790.4,125.5,787.8,125.5z M756.9,58.8c0,1.9,0,3.7,0,4.8c0,5.2,5.1,8.2,10.8,8.2c6.7,0,9.7-2.6,11.7-4.7
			c-0.6-0.7-1.1-1.4-1.5-2.2c-2.2,1.9-4.2,3.6-7,3.6c-3.3,0-5.6-2.6-6-5.3c-0.2-1.1-0.1-3.3-0.1-5.1V35h11.5v-2.6h-11.5V17.6h-3.6
			c0,0,0.2,6.6-3.1,11.3c-2.5,3.6-7.5,3.8-7.5,3.8v2.5h6.3L756.9,58.8L756.9,58.8z M777.7,51.9c0-6.7,2.7-12.9,7.7-16.6
			c3.3-2.4,7.1-3.5,11.5-3.5c9.6,0,16.8,6.5,17.3,16.4H786c0,0-2.9,20.2,13,20.2c0,0,8.3,0.3,12.3-7.3l2.5,1.2
			c-2,5.7-8.7,9.7-15.9,9.7C786.9,72,777.7,63,777.7,51.9z M786.3,44.9h19.5c-0.3-6.1-4.1-10.1-9.6-10.1
			C791.9,34.8,786.3,37.4,786.3,44.9z M654.6,106.6c0,0-2.7,18.6,12,18.6c0,0,7.7,0.3,11.4-6.7l2.3,1.1c-1.8,5.2-8.1,8.9-14.7,8.9
			c-10.1,0-18.6-8.3-18.6-18.5c0-6.2,2.5-11.9,7.1-15.3c3-2.2,6.6-3.2,10.6-3.2c8.9,0,15.5,6,16,15.1H654.6z M654.9,103.5h18
			c-0.3-5.6-3.8-9.3-8.8-9.3C660,94.2,654.9,96.6,654.9,103.5z M846.4,32L846.4,32L846.4,32h-0.2c-8.1-1.8-14.4,4.9-15.8,6.5v-5.9
			h-3.2l-11.6,3.1V38h7v29.2l-6.7,1.8v2.3h21.8V69l-7.2-1.9V42c0.5-0.5,4.1-4.3,7.3-4.3c3.6,0,3.7,2.3,7.2,2.6c0,0,0,0,0.1,0l0,0
			l0,0c0.1,0,0.3,0,0.4,0c2.3,0,4.2-1.9,4.2-4.2C849.6,34.1,848.2,32.5,846.4,32z M711.6,91.7L711.6,91.7L711.6,91.7h-0.2
			c-7.4-1.6-13.3,4.5-14.5,6v-5.4h-3l-10.7,2.9v2.2h6.4v26.9l-6.2,1.7v2.2h20V126l-6.6-1.7v-23.1c0.4-0.5,3.8-4,6.7-4
			c3.3,0,3.4,2.1,6.6,2.4c0,0,0,0,0.1,0l0,0c0.1,0,0.2,0,0.4,0c2.1,0,3.9-1.7,3.9-3.9C714.5,93.6,713.3,92.1,711.6,91.7z
			 M601.2,92.1L588,93.5v3h6.2v27.2l-6.4,2v2.3h19.5v-2.3l-6.1-2V92.1z M598.1,79.5c-2.5,0-4.5,2-4.5,4.5s2,4.5,4.5,4.5
			s4.5-2,4.5-4.5S600.6,79.5,598.1,79.5z M764.2,92.1L751,93.5v3h6.2v27.2l-6.3,2v2.3h19.4v-2.3l-6.1-2V92.1z M756.4,84
			c0,2.5,2,4.5,4.5,4.5s4.5-2,4.5-4.5s-2-4.5-4.5-4.5S756.4,81.5,756.4,84z M698.4,48.7V41c0-5.8-6.3-6-8.9-6
			c-2.2,0-6.3,0.1-8.2,2.6c-1.1,1.4-0.7,3.7-0.7,4.8c0.1,2.4-1.5,4.1-3.7,4.1s-4.1-1.9-4.1-4.1c0-4.6,4.3-7.3,4.3-7.3
			c3.2-2.2,8.8-3.3,13.4-3.3c4.8,0,8.9,1,12.4,3.7c1.8,1.4,3.3,3.7,3.3,8.6c0,6.3,0,22.7,0,22.7l7.7,2.1l0.4,2.4H703l-4.6-5
			c0,0-6.5,5.5-14.8,5.5s-12-4.5-12-8.5c0,0-1.4-8.5,10.9-12.1c2.3-0.7,4.4-1.1,6.1-1.4C695.2,48.6,698.4,48.7,698.4,48.7z
			 M698.3,51.5c0,0-7.7,0.3-13,2.6c-4,1.7-6.1,4.7-5.9,8.4c0.1,2.2,2.4,5.8,8,5.5c5.5-0.4,10.9-5.2,10.9-5.2V51.5z M733.1,105.3
			c-5.5-1-9.9-2.5-9.9-6.2c0-4.4,5.3-4.8,7.5-4.8c10.1,0.4,13,8.9,13,8.9h2.3L743.7,92h-2l-0.7,2.4c-1.8-1.2-5.5-3.2-10-3.2
			c-9,0-14.1,5.2-14.1,10.9c0,5.7,7.3,8.1,12.9,9.7c5.4,1.6,12.6,1.9,12.6,7.2c0,6.5-8.8,6.4-8.8,6.4c-12,0-15.1-10.7-15.1-10.7H716
			l2.4,13.1h2.4l0.9-3c0,0,6,3.5,12.3,3.5c9,0,15-5.9,15-12.1C748.7,107.9,738.9,106.3,733.1,105.3z M563.6,48.7V41
			c0-5.8-6.3-6-8.9-6c-2.2,0-6.3,0.1-8.2,2.6c-1.1,1.4-0.7,3.7-0.7,4.8c0.1,2.4-1.5,4.1-3.7,4.1s-4.1-1.9-4.1-4.1
			c0-4.6,4.3-7.3,4.3-7.3c3.2-2.2,8.8-3.3,13.4-3.3c4.8,0,8.9,1,12.4,3.7c1.8,1.4,3.3,3.7,3.3,8.6c0,6.3,0,22.7,0,22.7l7.2,2v2.6
			h-10.4l-4.6-5c0,0-6.5,5.5-14.8,5.5s-12-4.5-12-8.5c0,0-1.4-8.5,10.9-12.1c2.3-0.7,4.4-1.1,6.1-1.4
			C560.3,48.6,563.6,48.7,563.6,48.7z M563.5,51.5c0,0-7.7,0.3-13,2.6c-4,1.7-6.1,4.7-5.9,8.4c0.1,2.2,2.4,5.8,8,5.5
			c5.5-0.4,10.9-5.2,10.9-5.2V51.5z"/>
		<g>
			<path class="st2" d="M970.7,118.8c-3,0.8-6.5,1.4-11.6,1.4c-4.5,0-7.8-0.5-10.6-1.1c-2.1-0.5-3.8-1.1-5.6-1.8
				c-2.6-1-5.1-2.2-8.3-3.1c-3.2-0.9-7.1-1.5-12.5-1.5c-4.7,0-8.3,0.5-11.3,1.2c-2.3,0.6-4.2,1.3-6,2c-2.7,1.1-5.1,2.2-8,3
				c-3,0.8-6.5,1.4-11.6,1.4c-4.5,0-7.8-0.5-10.6-1.1c-1.9-0.5-3.6-1.1-5.2-1.7c0.6,1.4,1.2,2.7,1.9,4.1c0.5,0.1,0.9,0.3,1.4,0.4
				c3.2,0.9,7.1,1.5,12.5,1.5c4.7,0,8.3-0.5,11.3-1.2c2.3-0.6,4.2-1.3,6-2c2.7-1.1,5.1-2.2,8-3c3-0.8,6.5-1.4,11.6-1.4
				c4.5,0,7.8,0.5,10.6,1.1c2.1,0.5,3.8,1.1,5.6,1.8c2.6,1,5.1,2.2,8.3,3.1c3.2,0.9,7.1,1.5,12.4,1.5c4.7,0,8.3-0.5,11.3-1.2
				c0.9-0.2,1.7-0.5,2.5-0.7c0.7-1.4,1.3-2.7,1.9-4.1C973.5,117.9,972.2,118.4,970.7,118.8z"/>
			<path class="st2" d="M959.1,113.8c-4.5,0-7.8-0.5-10.6-1.1c-2.1-0.5-3.8-1.1-5.6-1.8c-2.6-1-5.1-2.2-8.3-3.1
				c-3.2-0.9-7.1-1.5-12.5-1.5c-4.7,0-8.3,0.5-11.3,1.2c-2.3,0.6-4.2,1.3-6,2c-2.7,1.1-5.1,2.2-8,3c-3,0.8-6.5,1.4-11.6,1.4
				c-4.5,0-7.8-0.5-10.6-1.1c-2.1-0.5-3.8-1.1-5.6-1.8c-0.9-0.4-1.8-0.7-2.8-1.1c0.5,1.3,1,2.7,1.5,4.1c1.5,0.6,3.1,1.2,4.9,1.7
				c3.2,0.9,7.1,1.5,12.5,1.5c4.7,0,8.3-0.5,11.3-1.2c2.3-0.6,4.2-1.3,6-2c2.7-1.1,5.1-2.2,8-3c3-0.8,6.5-1.4,11.6-1.4
				c4.5,0,7.8,0.5,10.6,1.1c2.1,0.5,3.8,1.1,5.6,1.8c2.6,1,5.1,2.2,8.3,3.1c3.2,0.9,7.1,1.5,12.4,1.5c4.7,0,8.3-0.5,11.3-1.2
				c2.2-0.6,4.2-1.2,5.9-2c0.5-1.4,1.1-2.7,1.6-4.1c-2.4,1-4.6,1.9-7.3,2.7C967.7,113.2,964.2,113.8,959.1,113.8z"/>
			<path class="st2" d="M865.3,106.6c2.3,0.9,4.6,1.9,7.5,2.7c3.2,0.9,7.1,1.5,12.5,1.5c4.7,0,8.3-0.5,11.3-1.2c2.3-0.6,4.2-1.3,6-2
				c2.7-1.1,5.1-2.2,8-3c3-0.8,6.5-1.4,11.6-1.4c4.5,0,7.8,0.5,10.6,1.1c2.1,0.5,3.8,1.1,5.6,1.8c2.6,1,5.1,2.2,8.3,3.1
				c3.2,0.9,7.1,1.5,12.4,1.5c4.7,0,8.3-0.5,11.3-1.2c2.3-0.6,4.2-1.3,6-2c0.9-0.4,1.7-0.7,2.6-1c0.4-1.3,0.8-2.6,1.2-3.9
				c-0.5,0.2-1,0.4-1.4,0.6c-2.7,1.1-5.1,2.2-8,3c-3,0.8-6.5,1.4-11.6,1.4c-4.5,0-7.8-0.5-10.6-1.1c-2.1-0.5-3.8-1.1-5.6-1.8
				c-2.6-1-5.1-2.2-8.3-3.1c-3.2-0.9-7.1-1.5-12.5-1.5c-4.7,0-8.3,0.5-11.3,1.2c-2.3,0.6-4.2,1.3-6,2c-2.7,1.1-5.1,2.2-8,3
				c-3,0.8-6.5,1.4-11.6,1.4c-4.5,0-7.8-0.5-10.6-1.1c-2.1-0.5-3.8-1.1-5.6-1.8c-1.6-0.6-3.2-1.3-5-2
				C864.5,103.9,864.9,105.2,865.3,106.6z"/>
		</g>
		<rect x="860.4" y="65.3" class="st2" width="123.5" height="1.6"/>
		<rect x="449.5" class="st4" width="1.8" height="144.6"/>
	</g>
	<g>
		<path d="M1.3,127c0-4.7,0.1-9.4,0.1-14.1c11.7,0,23.4-0.1,35.1-0.1c2.8,0,5.7-0.1,8.5-0.8c5.3-1.2,9.4-3.6,10.8-9.3
			c1.4-5.8-0.4-10.5-4.9-14.3c-6.1-5.2-13.5-8-20.4-11.7c-5.8-3.2-12-5.7-17.3-9.7C5.1,60.9,0.6,53.1,1.7,42.9
			c1.5-14.2,11.1-22.8,27.7-23.8c12.1-0.7,24.3-0.1,36.7-0.1c0,4.7,0,9.2,0,14.3c-11.4,0-22.7,0-34.1,0c-2.2,0-4.4,0.1-6.6,0.7
			c-9,2.6-11.7,12.1-5.2,18.9c3.8,4,8.7,6.2,13.5,8.7c7.2,3.8,14.7,7.3,21.8,11.4c12.5,7.3,17.7,17.7,15.8,30.2
			c-2.1,14.1-12.8,23.2-29.2,23.9C28.5,127.5,14.9,127,1.3,127z"/>
		<path d="M115.4,32.1c0,32,0,63.3,0,94.8c-4.8,0-9.3,0-14.3,0c0-31.2,0-62.6,0-94.5c-9.4,0-18.5,0-27.8,0c0-4.7,0-8.9,0-13.3
			c23.1,0,46.2,0,69.5,0c0,4.2,0,8.4,0,13C133.9,32.1,125,32.1,115.4,32.1z"/>
		<path class="st1" d="M394,127.6c0-25,0-49.9,0-75.2c5.9,0,11.8,0,18.1,0c0,24.9,0,49.9,0,75.2C406.2,127.6,400.3,127.6,394,127.6z
			"/>
		<path class="st5" d="M376,96.6c-12.4,0-24.8,0-37.5,0c0-5,0-10,0-15.3c12.3,0,24.7,0,37.5,0C376,86.3,376,91.3,376,96.6z"/>
		<path class="st5" d="M392.2,30.3c0-6.5,4.6-11.3,10.8-11.3c6.1,0,11.2,5,11.2,11.1c0.1,6.1-4.9,11.3-11,11.4
			C397,41.6,392.2,36.7,392.2,30.3z"/>
		<path d="M187.5,16.9c-30.6,0-55.3,25.1-55.2,56.2c0,31.2,24.5,56,55.3,56c30.1,0,54.8-24.7,54.9-54.9
			C242.4,42,218.4,16.9,187.5,16.9z M192.3,115c-19.2,2.7-37.7-10.2-43.4-30.1c-7.3-25.3,9-50.6,34.9-54.2
			c18.4-2.5,37.9,12,42.4,31.6c0.8,3.6,1.2,7.2,1.1,10C227.3,94.5,212.5,112.2,192.3,115z"/>
		<path d="M320.8,93.5c-0.4-10-3.9-18.6-15.1-22.1c12.5-10.2,16.1-18.8,12.6-31.2c-3.6-13.1-13-20-26-22.5
			c-21.7-4.2-39.3,7.6-41.9,30.2c-3,26.2-0.5,52.7-1.1,79c5.2,0,9.8,0,14.8,0c0-15.8,0-31.2,0-46.8c8.3,0,16.2-0.1,24.1,0
			c11.9,0.2,17.1,4.8,17.7,16.9c0.5,9.9,0.1,19.8,0.1,29.9c5.3,0,10,0,14.8,0C321,115.5,321.3,104.5,320.8,93.5z M304.2,51.1
			c-0.9,7.7-5.5,12.2-12.6,14.2c-8.8,2.4-17.9,0.6-27.5,1.3c0.1-7.3-0.7-14.1,1.1-20.7c3.6-13.7,18.7-19.8,30.8-12.5
			C302.6,37.4,305.1,43.5,304.2,51.1z"/>
		<path class="st6" d="M188,83.4c-6.2,0-11.1-5-11-11.2c0-6.3,5-11.2,11.2-11.1c6.1,0.1,11.3,5.3,11.2,11.3
			C199.4,78.4,194.2,83.4,188,83.4z"/>
	</g>
</g>
</svg>
